# xmcd
#
# Track frame offsets: 
#        182
#        11972
#        26615
#        38980
#        51315
#        63112
#        76782
#        88757
#        100382
#        114652
#        126330
#        140040
#        153575
#        161597
#        173787
#        187595
#        200057
#        214015
#        228005
#        239725
#        253825
#        265377
#        278085
#        292177
#        304950
#
# Disc length: 4253 seconds
#
# Revision: 0
# Processed by: cddbd v1.5.1PL0 Copyright (c) Steve Scherf et al.
# Submitted via: ExactAudioCopy v0.95a5
#
DISCID=75109b19
DTITLE=Johnny Otis - Rhythm and Blues Caravan the Complete Savoy Recordi
DTITLE=ngs CD3
DYEAR=1900
DGENRE=Blues
TTITLE0=It Can Never Happen Again
TTITLE1=Gee Baby
TTITLE2=Fools Gold
TTITLE3=Feel Like Crying Again
TTITLE4=Heartache, Here I Come
TTITLE5=Turn The Light Down Low
TTITLE6=Hold Me Close
TTITLE7=Gonna Take A Train
TTITLE8=Doggin' Blues
TTITLE9=Chitlin' Switch
TTITLE10=Warning Blues
TTITLE11=Living And Loving You
TTITLE12=Hunter Hancock Theme
TTITLE13=Mambo Boogie
TTITLE14=New Love
TTITLE15=Just Another Flame
TTITLE16=I'll Ask My Heart
TTITLE17=It Ain't The Beauty
TTITLE18=All Night Long
TTITLE19=Help Me Blues
TTITLE20=Walkin' Shoe Boogie
TTITLE21=Honky Tonk Boogie
TTITLE22=Because I Love My Baby So
TTITLE23=Where's My Baby
TTITLE24=Three Magic Words
EXTD=
EXTT0=
EXTT1=
EXTT2=
EXTT3=
EXTT4=
EXTT5=
EXTT6=
EXTT7=
EXTT8=
EXTT9=
EXTT10=
EXTT11=
EXTT12=
EXTT13=
EXTT14=
EXTT15=
EXTT16=
EXTT17=
EXTT18=
EXTT19=
EXTT20=
EXTT21=
EXTT22=
EXTT23=
EXTT24=
PLAYORDER=
